<svg id="visual" viewBox="0 0 1920 1080" width="1920" height="1080" xmlns="http://www.w3.org/2000/svg" xmlns:xlink="http://www.w3.org/1999/xlink" version="1.1"><rect x="0" y="0" width="1920" height="1080" fill="#EAF6F6"></rect><path d="M0 819L35.5 817.3C71 815.7 142 812.3 213.2 811.3C284.3 810.3 355.7 811.7 426.8 816.2C498 820.7 569 828.3 640 834C711 839.7 782 843.3 853.2 838.3C924.3 833.3 995.7 819.7 1066.8 812.7C1138 805.7 1209 805.3 1280 812C1351 818.7 1422 832.3 1493.2 844.7C1564.3 857 1635.7 868 1706.8 862.8C1778 857.7 1849 836.3 1884.5 825.7L1920 815L1920 1081L1884.5 1081C1849 1081 1778 1081 1706.8 1081C1635.7 1081 1564.3 1081 1493.2 1081C1422 1081 1351 1081 1280 1081C1209 1081 1138 1081 1066.8 1081C995.7 1081 924.3 1081 853.2 1081C782 1081 711 1081 640 1081C569 1081 498 1081 426.8 1081C355.7 1081 284.3 1081 213.2 1081C142 1081 71 1081 35.5 1081L0 1081Z" fill="#66bfbf"></path><path d="M0 891L35.5 888.3C71 885.7 142 880.3 213.2 881.3C284.3 882.3 355.7 889.7 426.8 899.3C498 909 569 921 640 922.5C711 924 782 915 853.2 912.8C924.3 910.7 995.7 915.3 1066.8 911.7C1138 908 1209 896 1280 894.2C1351 892.3 1422 900.7 1493.2 907.3C1564.3 914 1635.7 919 1706.8 916.8C1778 914.7 1849 905.3 1884.5 900.7L1920 896L1920 1081L1884.5 1081C1849 1081 1778 1081 1706.8 1081C1635.7 1081 1564.3 1081 1493.2 1081C1422 1081 1351 1081 1280 1081C1209 1081 1138 1081 1066.8 1081C995.7 1081 924.3 1081 853.2 1081C782 1081 711 1081 640 1081C569 1081 498 1081 426.8 1081C355.7 1081 284.3 1081 213.2 1081C142 1081 71 1081 35.5 1081L0 1081Z" fill="#51b2b4"></path><path d="M0 934L35.5 933.2C71 932.3 142 930.7 213.2 933.5C284.3 936.3 355.7 943.7 426.8 950.8C498 958 569 965 640 963.5C711 962 782 952 853.2 949.2C924.3 946.3 995.7 950.7 1066.8 947.8C1138 945 1209 935 1280 933.8C1351 932.7 1422 940.3 1493.2 941.2C1564.3 942 1635.7 936 1706.8 936.3C1778 936.7 1849 943.3 1884.5 946.7L1920 950L1920 1081L1884.5 1081C1849 1081 1778 1081 1706.8 1081C1635.7 1081 1564.3 1081 1493.2 1081C1422 1081 1351 1081 1280 1081C1209 1081 1138 1081 1066.8 1081C995.7 1081 924.3 1081 853.2 1081C782 1081 711 1081 640 1081C569 1081 498 1081 426.8 1081C355.7 1081 284.3 1081 213.2 1081C142 1081 71 1081 35.5 1081L0 1081Z" fill="#38a6a9"></path><path d="M0 1000L35.5 1007.3C71 1014.7 142 1029.3 213.2 1030.8C284.3 1032.3 355.7 1020.7 426.8 1010.7C498 1000.7 569 992.3 640 990.7C711 989 782 994 853.2 995.2C924.3 996.3 995.7 993.7 1066.8 999.7C1138 1005.7 1209 1020.3 1280 1025.7C1351 1031 1422 1027 1493.2 1028.7C1564.3 1030.3 1635.7 1037.7 1706.8 1039C1778 1040.3 1849 1035.7 1884.5 1033.3L1920 1031L1920 1081L1884.5 1081C1849 1081 1778 1081 1706.8 1081C1635.7 1081 1564.3 1081 1493.2 1081C1422 1081 1351 1081 1280 1081C1209 1081 1138 1081 1066.8 1081C995.7 1081 924.3 1081 853.2 1081C782 1081 711 1081 640 1081C569 1081 498 1081 426.8 1081C355.7 1081 284.3 1081 213.2 1081C142 1081 71 1081 35.5 1081L0 1081Z" fill="#11999e"></path></svg>