<svg id="visual" viewBox="0 0 1920 1080" width="1920" height="1080" xmlns="http://www.w3.org/2000/svg" xmlns:xlink="http://www.w3.org/1999/xlink" version="1.1"><rect x="0" y="0" width="1920" height="1080" fill="#EAF6F6"></rect><path d="M0 628L45.7 635.7C91.3 643.3 182.7 658.7 274.2 661.7C365.7 664.7 457.3 655.3 548.8 662.5C640.3 669.7 731.7 693.3 823 708.7C914.3 724 1005.7 731 1097 724.2C1188.3 717.3 1279.7 696.7 1371.2 688.3C1462.7 680 1554.3 684 1645.8 661.5C1737.3 639 1828.7 590 1874.3 565.5L1920 541L1920 1081L1874.3 1081C1828.7 1081 1737.3 1081 1645.8 1081C1554.3 1081 1462.7 1081 1371.2 1081C1279.7 1081 1188.3 1081 1097 1081C1005.7 1081 914.3 1081 823 1081C731.7 1081 640.3 1081 548.8 1081C457.3 1081 365.7 1081 274.2 1081C182.7 1081 91.3 1081 45.7 1081L0 1081Z" fill="#66bfbf"></path><path d="M0 716L45.7 729.5C91.3 743 182.7 770 274.2 779.7C365.7 789.3 457.3 781.7 548.8 762C640.3 742.3 731.7 710.7 823 689C914.3 667.3 1005.7 655.7 1097 651C1188.3 646.3 1279.7 648.7 1371.2 671.3C1462.7 694 1554.3 737 1645.8 750.8C1737.3 764.7 1828.7 749.3 1874.3 741.7L1920 734L1920 1081L1874.3 1081C1828.7 1081 1737.3 1081 1645.8 1081C1554.3 1081 1462.7 1081 1371.2 1081C1279.7 1081 1188.3 1081 1097 1081C1005.7 1081 914.3 1081 823 1081C731.7 1081 640.3 1081 548.8 1081C457.3 1081 365.7 1081 274.2 1081C182.7 1081 91.3 1081 45.7 1081L0 1081Z" fill="#56b5b6"></path><path d="M0 771L45.7 767C91.3 763 182.7 755 274.2 768.5C365.7 782 457.3 817 548.8 821.8C640.3 826.7 731.7 801.3 823 781.8C914.3 762.3 1005.7 748.7 1097 746C1188.3 743.3 1279.7 751.7 1371.2 755.8C1462.7 760 1554.3 760 1645.8 758.5C1737.3 757 1828.7 754 1874.3 752.5L1920 751L1920 1081L1874.3 1081C1828.7 1081 1737.3 1081 1645.8 1081C1554.3 1081 1462.7 1081 1371.2 1081C1279.7 1081 1188.3 1081 1097 1081C1005.7 1081 914.3 1081 823 1081C731.7 1081 640.3 1081 548.8 1081C457.3 1081 365.7 1081 274.2 1081C182.7 1081 91.3 1081 45.7 1081L0 1081Z" fill="#45acae"></path><path d="M0 956L45.7 945.7C91.3 935.3 182.7 914.7 274.2 912.2C365.7 909.7 457.3 925.3 548.8 925.2C640.3 925 731.7 909 823 902.5C914.3 896 1005.7 899 1097 895.3C1188.3 891.7 1279.7 881.3 1371.2 874C1462.7 866.7 1554.3 862.3 1645.8 860.8C1737.3 859.3 1828.7 860.7 1874.3 861.3L1920 862L1920 1081L1874.3 1081C1828.7 1081 1737.3 1081 1645.8 1081C1554.3 1081 1462.7 1081 1371.2 1081C1279.7 1081 1188.3 1081 1097 1081C1005.7 1081 914.3 1081 823 1081C731.7 1081 640.3 1081 548.8 1081C457.3 1081 365.7 1081 274.2 1081C182.7 1081 91.3 1081 45.7 1081L0 1081Z" fill="#30a2a6"></path><path d="M0 994L45.7 985.2C91.3 976.3 182.7 958.7 274.2 947.5C365.7 936.3 457.3 931.7 548.8 944.7C640.3 957.7 731.7 988.3 823 990.5C914.3 992.7 1005.7 966.3 1097 962C1188.3 957.7 1279.7 975.3 1371.2 981.8C1462.7 988.3 1554.3 983.7 1645.8 973.3C1737.3 963 1828.7 947 1874.3 939L1920 931L1920 1081L1874.3 1081C1828.7 1081 1737.3 1081 1645.8 1081C1554.3 1081 1462.7 1081 1371.2 1081C1279.7 1081 1188.3 1081 1097 1081C1005.7 1081 914.3 1081 823 1081C731.7 1081 640.3 1081 548.8 1081C457.3 1081 365.7 1081 274.2 1081C182.7 1081 91.3 1081 45.7 1081L0 1081Z" fill="#11999e"></path></svg>